<?xml version="1.0" encoding="iso-8859-1"?>
<!-- Generator: Adobe Illustrator 19.0.0, SVG Export Plug-In . SVG Version: 6.00 Build 0)  -->
<svg version="1.1" id="Capa_1" xmlns="http://www.w3.org/2000/svg" xmlns:xlink="http://www.w3.org/1999/xlink" x="0px" y="0px"
	 viewBox="0 0 511.99 511.99" style="enable-background:new 0 0 511.99 511.99;" xml:space="preserve">
<path style="fill:#F0AB95;" d="M370.578,470.663c-12.264-2.654-20.053-14.746-17.4-27.009l24.767-114.457l-62.656-82.901
	c-7.565-10.009-5.584-24.256,4.425-31.822c10.01-7.565,24.257-5.582,31.821,4.427l68.94,91.216c3.99,5.278,5.48,12.035,4.081,18.503
	l-26.972,124.645C394.926,465.559,382.805,473.309,370.578,470.663z"/>
<path style="fill:#FFB69E;" d="M415.25,101.404l-48.314-14.129c-14.962-4.376-30.64,4.206-35.016,19.17l-40.472,138.388
	c-2.151,5.463-2.204,11.749,0.367,17.54l22.794,51.34l-82.592,42.081c-11.179,5.696-15.625,19.376-9.929,30.555
	c4.013,7.876,11.988,12.41,20.26,12.409c3.469,0,6.992-0.798,10.294-2.48l101.782-51.858c10.759-5.482,15.35-18.423,10.451-29.461
	l-24.483-55.145l53.375,15.609l40.652-139.003C438.795,121.457,430.212,105.781,415.25,101.404z"/>
<path style="fill:#47A7FF;" d="M377.946,329.196l45.085-14.789c-0.685-1.506-1.537-2.947-2.553-4.291l-68.94-91.216
	c-7.565-10.009-21.811-11.99-31.821-4.427c-10.009,7.565-11.991,21.812-4.425,31.822L377.946,329.196z"/>
<path style="fill:#61B3FF;" d="M314.609,313.711l50.022,0.696l-24.238-54.594l-48.944-14.982c-2.151,5.463-2.204,11.749,0.367,17.54
	L314.609,313.711z"/>
<path style="fill:#F0AB95;" d="M319.356,225.067l-49.528-77.035c-3.341-5.197-3.937-11.698-1.593-17.416
	c2.343-5.718,7.328-9.932,13.356-11.291l79.171-17.841c10.204-2.299,20.332,4.107,22.631,14.307
	c2.299,10.2-4.107,20.332-14.307,22.631l-52.776,11.893l34.895,54.277c5.655,8.795,3.109,20.508-5.686,26.162
	C336.743,236.395,325.022,233.881,319.356,225.067z"/>
<path style="fill:#78BEFF;" d="M393.766,275.424l-102.499-29.976l40.652-139.003c4.376-14.962,20.053-23.545,35.016-19.17
	l48.314,14.129c14.962,4.376,23.545,20.053,19.17,35.016L393.766,275.424z"/>
<circle style="fill:#FFB69E;" cx="414.009" cy="41.786" r="41.786"/>
<path style="fill:#FFB69E;" d="M479.781,235.906c-2.032,0.333-4.151,0.339-6.294-0.032l-74.529-12.897
	c-6.247-1.081-11.537-5.217-14.095-11.018l-37.186-84.366c-4.217-9.567,0.12-20.742,9.688-24.959
	c9.565-4.223,20.742,0.12,24.959,9.688l33.093,75.079l64.527,11.167c10.303,1.783,17.209,11.579,15.426,21.883
	C493.958,228.608,487.517,234.638,479.781,235.906z"/>
<path style="fill:#AB5F40;" d="M171.484,511.458c-12.602-2.727-20.608-15.153-17.88-27.755l25.452-117.62l-64.387-85.192
	c-7.774-10.286-5.738-24.927,4.548-32.701c10.287-7.773,24.927-5.737,32.7,4.549l70.845,93.736c4.1,5.425,5.631,12.367,4.193,19.014
	l-27.716,128.088C196.504,506.214,184.049,514.177,171.484,511.458z"/>
<path style="fill:#BA6746;" d="M217.391,131.997l-49.649-14.52c-15.377-4.497-31.486,4.323-35.983,19.698L90.167,279.387
	c-2.211,5.614-2.265,12.074,0.377,18.025l23.423,52.758l-84.874,43.244c-11.488,5.854-16.057,19.911-10.203,31.399
	c4.123,8.094,12.32,12.753,20.82,12.753c3.565,0,7.185-0.82,10.58-2.549l104.594-53.29c11.057-5.633,15.774-18.933,10.74-30.274
	l-25.16-56.668l54.85,16.041l41.775-142.844C241.586,152.604,232.766,136.494,217.391,131.997z"/>
<path style="fill:#47A7FF;" d="M179.056,366.083l46.33-15.198c-0.704-1.548-1.579-3.028-2.624-4.41l-70.845-93.736
	c-7.773-10.286-22.414-12.322-32.7-4.549c-10.286,7.774-12.323,22.415-4.548,32.701L179.056,366.083z"/>
<path style="fill:#61B3FF;" d="M113.968,350.17l51.404,0.715l-24.908-56.102l-50.296-15.395c-2.211,5.614-2.265,12.074,0.377,18.025
	L113.968,350.17z"/>
<path style="fill:#AB5F40;" d="M118.846,259.076L67.95,179.912c-3.434-5.341-4.045-12.021-1.637-17.897s7.531-10.206,13.725-11.602
	l81.358-18.334c10.486-2.363,20.893,4.22,23.256,14.702c2.363,10.482-4.22,20.893-14.701,23.256l-54.235,12.222l35.86,55.776
	c5.811,9.037,3.195,21.075-5.843,26.885C136.713,270.717,124.669,268.134,118.846,259.076z"/>
<path style="fill:#78BEFF;" d="M195.313,310.824L89.982,280.019l41.775-142.844c4.497-15.377,20.608-24.196,35.983-19.698
	l49.649,14.52c15.377,4.497,24.196,20.608,19.698,35.983L195.313,310.824z"/>
<circle style="fill:#BA6746;" cx="216.11" cy="70.735" r="42.94"/>
<path style="fill:#BA6746;" d="M283.705,270.216c-2.088,0.343-4.266,0.348-6.468-0.033l-76.588-13.254
	c-6.42-1.111-11.856-5.361-14.485-11.324l-38.215-86.698c-4.334-9.832,0.125-21.315,9.956-25.649
	c9.829-4.339,21.315,0.125,25.649,9.956l34.007,77.153l66.31,11.476c10.588,1.833,17.684,11.9,15.853,22.487
	C298.273,262.716,291.654,268.912,283.705,270.216z"/>
<g>
</g>
<g>
</g>
<g>
</g>
<g>
</g>
<g>
</g>
<g>
</g>
<g>
</g>
<g>
</g>
<g>
</g>
<g>
</g>
<g>
</g>
<g>
</g>
<g>
</g>
<g>
</g>
<g>
</g>
</svg>
