<?xml version="1.0" encoding="iso-8859-1"?>
<!-- Generator: Adobe Illustrator 19.0.0, SVG Export Plug-In . SVG Version: 6.00 Build 0)  -->
<svg version="1.1" id="Capa_1" xmlns="http://www.w3.org/2000/svg" xmlns:xlink="http://www.w3.org/1999/xlink" x="0px" y="0px"
	 viewBox="0 0 496 496" style="enable-background:new 0 0 496 496;" xml:space="preserve">
<g>
	<path style="fill:#F0BC5E;" d="M349.296,411.088C361.224,388.696,368,363.144,368,336c0-68.976-43.736-127.584-104.92-150.064
		c8.952-21.312,27.496-39.088,48.92-48.792l20.784,12c74.256,42.88,103.4,133.88,70.784,210.856
		C387.456,382.4,369.208,399,349.296,411.088z"/>
	<path style="fill:#F0BC5E;" d="M338.592,78.728c-25.36,0.864-50.88,7.776-74.384,21.344
		c-59.736,34.488-88.624,101.664-77.496,165.888C163.776,268.872,139.12,261.704,120,248v-24
		c0-85.744,64.24-156.488,147.208-166.728C294.664,60.024,318.168,67.536,338.592,78.728z"/>
	<path style="fill:#F0BC5E;" d="M56.112,254.176c13.432,21.528,32.168,40.176,55.68,53.744
		c59.736,34.488,132.36,25.92,182.416-15.832c13.976,18.408,20.104,43.352,17.792,66.76l-20.784,12
		c-74.256,42.872-167.64,22.616-217.992-44.128C61.88,301.568,56.632,277.464,56.112,254.176z"/>
</g>
<path d="M448,248c0-110.28-89.72-200-200-200S48,137.72,48,248s89.72,200,200,200S448,358.28,448,248z M367.928,387.368
	c4.048-10.968,7-22.288,8.552-33.96l-15.856-2.112c-2.488,18.64-8.56,36.448-18.064,52.912c-0.448,0.768-0.936,1.496-1.432,2.208
	c-0.056,0.088-0.112,0.176-0.176,0.264c-8.8,5.176-18.056,9.64-27.704,13.312c11.84-28.952,14.072-60.768,5.84-91.496
	c-9.52-35.52-31.824-65.352-62.88-84.72c0.544-16.552,4.152-32.336,10.432-46.736c8.184,2.936,16.064,6.32,23.216,10.456
	c45.896,26.496,73.48,75.896,71.96,128.928l16,0.456c1.672-58.904-28.96-113.8-79.96-143.24c-7.384-4.264-15.448-7.768-23.792-10.88
	c8.536-14.336,19.768-26.832,33.024-36.848c7.848,3.048,15.08,6.344,21.68,10.16C399,196.616,427.68,283.008,395.824,357.4
	C387.672,368.408,378.296,378.44,367.928,387.368z M79.216,321.184C73.816,308.768,69.76,295.648,67.2,282
	c20.984,25.344,49.112,43.648,81.536,52.336c13.784,3.696,27.768,5.52,41.664,5.52c27.728,0,55.096-7.272,79.744-21.504
	c7.416-4.28,14.608-9.312,21.488-14.992c5.096,9.152,9.224,18.912,12.008,29.288c1.56,5.808,2.552,11.664,3.28,17.52
	c-6.568,5.28-13.064,9.912-19.704,13.752C216.936,404.512,127.672,386.096,79.216,321.184z M128,224
	c0-81.152,60.568-149.232,141-158.768c13.872,1.584,27.28,4.712,40.04,9.216C233.64,87.328,176,152.976,176,232
	c0,8.56,0.768,17.304,2.248,26.104c-10.472-0.16-21-1.464-31.384-4.24c-5.808-1.56-11.376-3.624-16.816-5.92
	C128.768,239.584,128,231.648,128,224z M364.272,105.512c-68.448,9.448-121.584,67.064-124.016,137.48
	c-14.464,7.744-29.968,12.592-45.88,14.384C192.816,248.8,192,240.288,192,232c0-79.4,64.6-144,144-144
	c0.888,0,1.76,0.064,2.632,0.128c0.104,0.008,0.208,0.008,0.304,0.016C347.872,93.24,356.352,99.04,364.272,105.512z
	 M142.728,269.312c12.416,3.328,25,4.968,37.504,4.968c23.336,0,46.36-5.8,67.392-17.016c13.904,8.648,25.824,19.632,35.312,32.48
	c-6.648,5.632-13.608,10.6-20.8,14.744c-33.312,19.232-72.112,24.336-109.264,14.392c-37.16-9.952-68.2-33.784-87.44-67.088
	c-0.448-0.776-0.824-1.56-1.2-2.344c-0.064-0.136-0.144-0.272-0.208-0.416c0-0.344-0.024-0.68-0.024-1.032
	c0-10.048,0.84-19.896,2.4-29.512C85.544,243.232,111.992,261.08,142.728,269.312z M432,248c0,17.808-2.592,35.016-7.336,51.312
	c1.704-62.808-30.416-123.92-87.88-157.096c-4.272-2.472-8.72-4.768-13.392-6.912c16.992-9.176,36.312-14.504,56.8-15.112
	C412.224,153.32,432,198.384,432,248z M204.144,69.32C148.88,99.248,112,157.624,112,224c0,4.968,0.24,10,0.728,15.16
	c-16.816-10.352-30.976-24.608-41.576-41.832C89.24,134.296,140.152,85.032,204.144,69.32z M115.616,375.6
	c27.688,16.904,59.456,25.808,91.648,25.808c29.984,0,60.312-7.664,87.952-23.624c4.312-2.496,8.544-5.216,12.76-8.2
	c-0.56,19.752-5.84,39.144-15.456,56.944C278.264,430.08,263.352,432,248,432C196.056,432,149.104,410.328,115.616,375.6z"/>
<path d="M248,16V0C111.248,0,0,111.248,0,248h16C16,120.08,120.08,16,248,16z"/>
<path d="M480,248c0,127.92-104.08,232-232,232v16c136.752,0,248-111.248,248-248H480z"/>
<rect x="8.177" y="302.11" transform="matrix(-0.9659 0.2588 -0.2588 -0.9659 112.0611 605.4661)" width="16" height="16"/>
<rect x="32.154" y="360.01" transform="matrix(-0.8661 0.4999 -0.4999 -0.8661 258.8962 666.667)" width="16" height="16"/>
<rect x="70.274" y="409.658" transform="matrix(-0.7071 0.7071 -0.7071 -0.7071 428.9515 657.6393)" width="16" height="16"/>
<rect x="120.006" y="447.828" transform="matrix(-0.4999 0.8661 -0.8661 -0.4999 586.7825 572.8286)" width="16" height="16"/>
<rect x="177.859" y="471.899" transform="matrix(-0.2588 0.9659 -0.9659 -0.2588 697.5089 424.5738)" width="16" height="16"/>
<rect x="471.795" y="177.845" transform="matrix(-0.9659 0.2588 -0.2588 -0.9659 991.341 241.1838)" width="16" height="16"/>
<rect x="447.854" y="119.996" transform="matrix(-0.8661 0.4999 -0.4999 -0.8661 914.6481 10.9735)" width="16" height="16"/>
<rect x="409.682" y="70.318" transform="matrix(-0.7071 0.7071 -0.7071 -0.7071 768.407 -161.6495)" width="16" height="16"/>
<rect x="359.994" y="32.149" transform="matrix(-0.4999 0.8661 -0.8661 -0.4999 586.7242 -258.4947)" width="16" height="16"/>
<rect x="302.113" y="8.187" transform="matrix(-0.2588 0.9659 -0.9659 -0.2588 406.0076 -279.1709)" width="16" height="16"/>
<g>
</g>
<g>
</g>
<g>
</g>
<g>
</g>
<g>
</g>
<g>
</g>
<g>
</g>
<g>
</g>
<g>
</g>
<g>
</g>
<g>
</g>
<g>
</g>
<g>
</g>
<g>
</g>
<g>
</g>
</svg>
